<?xml version="1.0" encoding="UTF-8" standalone="no"?>
<!DOCTYPE svg PUBLIC "-//W3C//DTD SVG 1.1//EN" "http://www.w3.org/Graphics/SVG/1.1/DTD/svg11.dtd">
<svg version="1.1" xmlns="http://www.w3.org/2000/svg" xmlns:xlink="http://www.w3.org/1999/xlink" preserveAspectRatio="xMidYMid meet" viewBox="0 0 640 640" width="640" height="640"><defs><path d="M248.76 379.16C254.98 385.47 265.12 385.57 271.46 379.38C322.16 329.82 460.56 194.56 510.7 145.55C518.57 137.86 531.21 138.08 538.81 146.04C548.85 156.55 567.39 175.96 577.99 187.05C584.12 193.46 584.02 203.59 577.76 209.88C514.21 273.82 337.08 452.03 274.1 515.39C266.36 523.18 253.73 523.09 246.11 515.19C209.49 477.27 109.27 373.49 71.59 334.47C66.88 329.6 67.13 321.8 72.13 317.23C84.3 306.1 109.59 282.98 121.23 272.33C127.8 266.33 137.94 266.6 144.18 272.94C167.35 296.47 225.61 355.65 248.76 379.16Z" id="eKNTpsie9"></path></defs><g><g><g><g><use xlink:href="#eKNTpsie9" opacity="1" fill-opacity="0" stroke="#d3d3d3" stroke-width="20" stroke-opacity="1"></use></g></g></g></g></svg>