<?xml version="1.0" encoding="UTF-8" standalone="no"?>
<!DOCTYPE svg PUBLIC "-//W3C//DTD SVG 1.1//EN" "http://www.w3.org/Graphics/SVG/1.1/DTD/svg11.dtd">
<svg version="1.1" xmlns="http://www.w3.org/2000/svg" xmlns:xlink="http://www.w3.org/1999/xlink" preserveAspectRatio="xMidYMid meet" viewBox="0 0 640 640" width="640" height="640"><defs><path d="M57.41 57.12L633.11 57.12L633.11 678.88L57.41 678.88L57.41 57.12Z" id="a1Y75FpHUY"></path><path d="M517.96 282.81C517.96 266.46 504.71 253.21 488.36 253.21C455.38 253.21 372.92 253.21 241 253.21C241 214.82 241 190.83 241 181.24C241 162.22 246.37 143.59 256.5 127.5C271.09 104.31 292.92 92.72 321.98 92.72C357.02 92.72 383.01 108.17 399.95 139.05C404.38 147.12 412.85 152.13 422.05 152.13C431.74 152.13 437.75 152.13 445.4 152.13C457.22 152.13 465.13 139.98 460.36 129.18C432.76 66.68 386.63 35.72 321.98 36.29C261.12 36.83 217.48 65.12 191.04 121.16C181.42 141.55 176.44 163.82 176.44 186.37C176.44 195.28 176.44 217.56 176.44 253.21C168.31 253.21 163.23 253.21 161.2 253.21C141.76 253.21 126 268.97 126 288.41C126 337.67 126 451.36 126 500.9C126 519.57 141.13 534.71 159.8 534.71C231.43 534.71 409.16 534.71 479.96 534.71C500.95 534.71 517.96 517.69 517.96 496.7C517.96 448 517.96 333.19 517.96 282.81Z" id="aIEDhhBdZ"></path></defs><g><g><g></g><g><g><use xlink:href="#aIEDhhBdZ" opacity="1" fill-opacity="0" stroke="#d3d3d3" stroke-width="20" stroke-opacity="1"></use></g></g></g></g></svg>