<?xml version="1.0" encoding="UTF-8" standalone="no"?>
<!DOCTYPE svg PUBLIC "-//W3C//DTD SVG 1.1//EN" "http://www.w3.org/Graphics/SVG/1.1/DTD/svg11.dtd">
<svg version="1.1" xmlns="http://www.w3.org/2000/svg" xmlns:xlink="http://www.w3.org/1999/xlink" preserveAspectRatio="xMidYMid meet" viewBox="0 0 640 640" width="640" height="640"><defs><path d="M526.81 246.2C563.07 238.02 591.07 240.89 610.82 254.84C618.31 260.12 622.92 268.57 623.31 277.72C627.16 367.24 588.81 420.3 508.26 436.92C421.66 454.79 381.11 426.27 386.61 351.36C367.64 358.23 272.79 392.6 102.07 454.45L114.44 404.97C360.95 305.54 498.4 252.62 526.81 246.2Z" id="a8TJjl4Yir"></path><path d="M521.74 245.8C557.58 237.61 582.26 243.49 601.78 257.45C609.19 262.74 626.75 280.2 627.13 289.36C630.94 378.99 583.03 420.11 503.4 436.75C417.8 454.64 377.72 426.08 383.16 351.09C195.64 419.89 102.14 454.21 102.65 454.02C102.32 454.14 102 453.85 102.08 453.52C103.69 447.02 107.7 430.76 114.12 404.76C357.79 305.22 493.66 252.23 521.74 245.8Z" id="a2gwptzY9"></path><path d="M41.53 274.45C37.95 267.94 28.31 268.95 26.15 276.05C24.26 282.3 19.51 297.92 11.92 322.9C49.4 392.99 72.82 436.8 82.19 454.32C86.02 461.47 96.64 460.2 98.67 452.35C100.4 445.63 104.74 428.85 111.68 402C74.26 333.97 50.88 291.45 41.53 274.45Z" id="iTnXZlPwg"></path><path d="M46.75 271.45C43.05 264.94 33.07 265.95 30.83 273.05C29.64 276.88 25.12 291.23 17.3 316.1C16.54 318.53 16.8 321.16 18.03 323.38C58.94 397.3 82.55 439.95 88.84 451.32C92.81 458.47 103.8 457.2 105.9 449.35C107.69 442.63 112.18 425.85 119.37 399C80.63 330.97 56.43 288.45 46.75 271.45Z" id="a2ByuZmZ9U"></path><path d="M543.67 244.66C557.81 245.35 580.21 249.66 610.89 257.61C531.9 152.57 486.34 97.64 474.23 92.83C456.05 85.61 446.66 66.46 397.18 71.62C364.2 75.05 332.58 86.51 302.33 106C159.44 191.54 70.13 245 34.41 266.38C31.5 268.12 30.59 271.92 32.38 274.79C42.58 291.14 68.08 332.01 108.88 397.39C384.61 294.88 529.53 243.98 543.67 244.66Z" id="aHXxAixC5"></path><path d="M539.25 244.66C553.27 245.35 575.47 249.66 605.89 257.61C527.58 152.57 482.41 97.64 470.41 92.83C452.39 85.61 443.08 66.46 394.02 71.62C361.33 75.05 329.98 86.51 299.99 106C158.34 191.54 69.8 245 34.38 266.38C31.5 268.12 30.6 271.92 32.37 274.79C42.48 291.14 78.16 336.01 118.61 401.39C391.96 298.88 525.23 243.98 539.25 244.66Z" id="atVhGUiSE"></path><path d="M606.98 153.38C596.88 141.67 569.33 140.11 524.34 148.69C527.95 153.35 546.02 176.63 578.55 218.54C604.24 182.9 613.71 161.18 606.98 153.38Z" id="e1QiLQtO4o"></path><path d="M606.98 153.38C596.88 141.67 569.33 140.11 524.34 148.69C527.95 153.35 546.02 176.63 578.55 218.54C604.24 182.9 613.71 161.18 606.98 153.38Z" id="a1stKFYX9w"></path></defs><g><g><g><use xlink:href="#a8TJjl4Yir" opacity="1" fill="#2f0743" fill-opacity="1"></use><g><use xlink:href="#a8TJjl4Yir" opacity="1" fill-opacity="0" stroke="#000000" stroke-width="1" stroke-opacity="0"></use></g></g><g><use xlink:href="#a2gwptzY9" opacity="1" fill="#000000" fill-opacity="0"></use><g><use xlink:href="#a2gwptzY9" opacity="1" fill-opacity="0" stroke="#000000" stroke-width="15" stroke-opacity="1"></use></g></g><g><use xlink:href="#iTnXZlPwg" opacity="1" fill="#2f0743" fill-opacity="1"></use><g><use xlink:href="#iTnXZlPwg" opacity="1" fill-opacity="0" stroke="#000000" stroke-width="1" stroke-opacity="0"></use></g></g><g><use xlink:href="#a2ByuZmZ9U" opacity="1" fill="#000000" fill-opacity="0"></use><g><use xlink:href="#a2ByuZmZ9U" opacity="1" fill-opacity="0" stroke="#000000" stroke-width="15" stroke-opacity="1"></use></g></g><g><use xlink:href="#aHXxAixC5" opacity="1" fill="#2f0743" fill-opacity="1"></use><g><use xlink:href="#aHXxAixC5" opacity="1" fill-opacity="0" stroke="#000000" stroke-width="1" stroke-opacity="0"></use></g></g><g><use xlink:href="#atVhGUiSE" opacity="1" fill="#000000" fill-opacity="0"></use><g><use xlink:href="#atVhGUiSE" opacity="1" fill-opacity="0" stroke="#000000" stroke-width="15" stroke-opacity="1"></use></g></g><g><use xlink:href="#e1QiLQtO4o" opacity="1" fill="#2f0743" fill-opacity="1"></use><g><use xlink:href="#e1QiLQtO4o" opacity="1" fill-opacity="0" stroke="#000000" stroke-width="1" stroke-opacity="0"></use></g></g><g><use xlink:href="#a1stKFYX9w" opacity="1" fill="#000000" fill-opacity="0"></use><g><use xlink:href="#a1stKFYX9w" opacity="1" fill-opacity="0" stroke="#000000" stroke-width="10" stroke-opacity="1"></use></g></g></g></g></svg>