<?xml version="1.0" encoding="UTF-8" standalone="no"?>
<!DOCTYPE svg PUBLIC "-//W3C//DTD SVG 1.1//EN" "http://www.w3.org/Graphics/SVG/1.1/DTD/svg11.dtd">
<svg version="1.1" xmlns="http://www.w3.org/2000/svg" xmlns:xlink="http://www.w3.org/1999/xlink" preserveAspectRatio="xMidYMid meet" viewBox="0 0 640 640" width="640" height="640"><defs><path d="M469.24 202.26C469.24 198.4 466.12 195.27 462.26 195.27C446.06 195.27 415.82 195.27 402.46 195.27C390.76 195.27 381.28 185.78 381.28 174.09C381.28 160.33 381.28 124.43 381.28 106.72C381.28 105.95 380.65 105.33 379.88 105.33C337.66 105.33 231.58 105.33 194.16 105.33C180.17 105.33 168.87 116.72 168.98 130.71C169.53 200.94 171.02 389.64 171.58 460.72C171.67 472.44 181.2 481.9 192.92 481.9C248.19 481.9 390.56 481.9 445.27 481.9C458.51 481.9 469.24 471.16 469.24 457.92C469.24 405.39 469.24 258.18 469.24 202.26Z" id="a2Cl4sHfV"></path><path d="M468.1 199.16L380.49 105.33L468.1 199.16Z" id="aLElrxyOq"></path><path d="M372.72 388.15C377.01 388.15 380.49 391.63 380.49 395.93C380.49 397.97 380.49 399.15 380.49 401.91C380.49 404.25 378.59 406.15 376.25 406.15C352.4 406.15 287.36 406.15 264.07 406.15C260.17 406.15 257 402.98 257 399.08C257 396.89 257 396.84 257 394.51C257 391 259.85 388.15 263.36 388.15C286.79 388.15 349.57 388.15 372.72 388.15Z" id="bYwcr1xVN"></path><path d="M372.72 337.15C377.01 337.15 380.49 340.63 380.49 344.93C380.49 346.97 380.49 348.15 380.49 350.91C380.49 353.25 378.59 355.15 376.25 355.15C352.4 355.15 287.36 355.15 264.07 355.15C260.17 355.15 257 351.98 257 348.08C257 345.89 257 345.84 257 343.51C257 340 259.85 337.15 263.36 337.15C286.79 337.15 349.57 337.15 372.72 337.15Z" id="b4NJbRKdL"></path><path d="M372.72 284.61C377.01 284.61 380.49 288.09 380.49 292.39C380.49 294.43 380.49 295.62 380.49 298.37C380.49 300.71 378.59 302.61 376.25 302.61C352.4 302.61 287.36 302.61 264.07 302.61C260.17 302.61 257 299.44 257 295.54C257 293.35 257 293.3 257 290.97C257 287.46 259.85 284.61 263.36 284.61C286.79 284.61 349.57 284.61 372.72 284.61Z" id="a2klfYxJCx"></path></defs><g><g><g><use xlink:href="#a2Cl4sHfV" opacity="1" fill="#100015" fill-opacity="0"></use><g><use xlink:href="#a2Cl4sHfV" opacity="1" fill-opacity="0" stroke="#d3d3d3" stroke-width="15" stroke-opacity="1"></use></g></g><g><use xlink:href="#aLElrxyOq" opacity="1" fill="#100015" fill-opacity="0"></use><g><use xlink:href="#aLElrxyOq" opacity="1" fill-opacity="0" stroke="#d3d3d3" stroke-width="15" stroke-opacity="1"></use></g></g><g><use xlink:href="#bYwcr1xVN" opacity="1" fill="#d3d3d3" fill-opacity="1"></use><g><use xlink:href="#bYwcr1xVN" opacity="1" fill-opacity="0" stroke="#d3d3d3" stroke-width="10" stroke-opacity="1"></use></g></g><g><use xlink:href="#b4NJbRKdL" opacity="1" fill="#d3d3d3" fill-opacity="1"></use><g><use xlink:href="#b4NJbRKdL" opacity="1" fill-opacity="0" stroke="#d3d3d3" stroke-width="10" stroke-opacity="1"></use></g></g><g><use xlink:href="#a2klfYxJCx" opacity="1" fill="#d3d3d3" fill-opacity="1"></use><g><use xlink:href="#a2klfYxJCx" opacity="1" fill-opacity="0" stroke="#d3d3d3" stroke-width="10" stroke-opacity="1"></use></g></g></g></g></svg>