<?xml version="1.0" encoding="UTF-8" standalone="no"?>
<!DOCTYPE svg PUBLIC "-//W3C//DTD SVG 1.1//EN" "http://www.w3.org/Graphics/SVG/1.1/DTD/svg11.dtd">
<svg version="1.1" xmlns="http://www.w3.org/2000/svg" xmlns:xlink="http://www.w3.org/1999/xlink" preserveAspectRatio="xMidYMid meet" viewBox="0 0 640 640" width="640" height="640"><defs><path d="M57.41 57.12L633.11 57.12L633.11 678.88L57.41 678.88L57.41 57.12Z" id="a1Y75FpHUY"></path><path d="M178.53 255.71C178.53 204.98 178.53 173.27 178.53 160.59C178.53 153.37 179.58 146.19 181.64 139.28C201.84 71.6 249.97 38.08 326.02 38.71C400.62 39.32 446.28 71.88 462.99 136.38C465.28 145.23 466.44 154.33 466.44 163.47C466.44 175.77 466.44 206.52 466.44 255.71C482.93 255.71 493.23 255.71 497.35 255.71C508.73 255.71 517.96 264.93 517.96 276.31C517.96 327.99 517.96 454.5 517.96 504.2C517.96 521.05 504.3 534.71 487.45 534.71C415.16 534.71 225.4 534.71 152.26 534.71C137.76 534.71 126 522.95 126 508.44C126 457.9 126 331.39 126 280.56C126 266.83 137.13 255.71 150.85 255.71C154.54 255.71 163.77 255.71 178.53 255.71Z" id="a59yJsAWD"></path><path d="M412 253.21C412 215.08 412 191.25 412 181.72C412 172.79 410.28 163.95 406.95 155.67C390.96 116.03 362.98 96.21 323 96.21C285.23 96.21 259.91 114.48 247.04 151.04C243.04 162.4 241 174.36 241 186.41C241 195.31 241 217.58 241 253.21L412 253.21Z" id="d5H1sRmTD"></path></defs><g><g><g></g><g><g><use xlink:href="#a59yJsAWD" opacity="1" fill-opacity="0" stroke="#d4d4d4" stroke-width="20" stroke-opacity="1"></use></g></g><g><g><use xlink:href="#d5H1sRmTD" opacity="1" fill-opacity="0" stroke="#d4d4d4" stroke-width="20" stroke-opacity="1"></use></g></g></g></g></svg>